G Serif wdt1000-wth1000-con0-asc0-dsc0-xht0-srf0-prp500.ufo
<glyph name="zero" format="1">
  <advance width="834"/>
  <unicode hex="0030"/>
  <outline>
    <contour>
      <point x="417" y="720" type="curve" smooth="yes"/>
      <point x="185" y="720"/>
      <point x="25" y="569"/>
      <point x="25" y="355" type="curve" smooth="yes"/>
      <point x="25" y="142"/>
      <point x="185" y="-10"/>
      <point x="417" y="-10" type="curve" smooth="yes"/>
      <point x="677" y="-10"/>
      <point x="809" y="142"/>
      <point x="809" y="355" type="curve" smooth="yes"/>
      <point x="809" y="569"/>
      <point x="677" y="720"/>
    </contour>
    <contour>
      <point x="417" y="492" type="curve" smooth="yes"/>
      <point x="473" y="492"/>
      <point x="494" y="438"/>
      <point x="494" y="355" type="curve" smooth="yes"/>
      <point x="494" y="272"/>
      <point x="473" y="218"/>
      <point x="417" y="218" type="curve" smooth="yes"/>
      <point x="369" y="218"/>
      <point x="340.0" y="272.05442176870747"/>
      <point x="340" y="355" type="curve" smooth="yes"/>
      <point x="340" y="438"/>
      <point x="369" y="492"/>
    </contour>
  </outline>
</glyph>
<glyph name="F" format="1">
  <advance width="758"/>
  <unicode hex="0046"/>
  <outline>
    <contour>
      <point x="75" y="0" type="line"/>
      <point x="395" y="0" type="line"/>
      <point x="395" y="710" type="line"/>
      <point x="75" y="710" type="line"/>
    </contour>
    <contour>
      <point x="282" y="437" type="line"/>
      <point x="282" y="259" type="line"/>
      <point x="536" y="259" type="line"/>
      <point x="536" y="437" type="line"/>
    </contour>
    <contour>
      <point x="753" y="710" type="line"/>
      <point x="15" y="710" type="line"/>
      <point x="15" y="520" type="line"/>
      <point x="75" y="520" type="line"/>
      <point x="75" y="520"/>
      <point x="75" y="520"/>
      <point x="75" y="520" type="curve"/>
      <point x="106" y="520" type="line"/>
      <point x="543" y="520" type="line"/>
      <point x="543" y="520"/>
      <point x="543" y="520"/>
      <point x="543" y="520" type="curve"/>
      <point x="543" y="462" type="line"/>
      <point x="753" y="462" type="line"/>
    </contour>
    <contour>
      <point x="15.0" y="0.0" type="line"/>
      <point x="475.0" y="0.0" type="line"/>
      <point x="475" y="190" type="line"/>
      <point x="395" y="190" type="line"/>
      <point x="395" y="190" type="line"/>
      <point x="75" y="190" type="line"/>
      <point x="75" y="190"/>
      <point x="75" y="190"/>
      <point x="75" y="190" type="curve"/>
      <point x="15" y="190" type="line"/>
    </contour>
  </outline>
</glyph>
<glyph name="J" format="1">
  <advance width="531"/>
  <unicode hex="004A"/>
  <outline>
    <contour>
      <point x="516" y="710" type="line"/>
      <point x="86" y="710" type="line"/>
      <point x="86" y="520" type="line"/>
      <point x="146" y="520" type="line"/>
      <point x="146" y="520"/>
      <point x="146" y="520"/>
      <point x="146" y="520" type="curve"/>
      <point x="466" y="520" type="line"/>
      <point x="466" y="520"/>
      <point x="466" y="520"/>
      <point x="466" y="520" type="curve"/>
      <point x="516" y="520" type="line"/>
    </contour>
    <contour>
      <point x="10" y="8" type="line"/>
      <point x="35" y="0"/>
      <point x="87" y="-10"/>
      <point x="169" y="-10" type="curve" smooth="yes"/>
      <point x="352" y="-10"/>
      <point x="466" y="74"/>
      <point x="466" y="258" type="curve" smooth="yes"/>
      <point x="466" y="710" type="line"/>
      <point x="146" y="710" type="line"/>
      <point x="146" y="294" type="line" smooth="yes"/>
      <point x="146" y="237"/>
      <point x="120" y="215"/>
      <point x="78" y="215" type="curve" smooth="yes"/>
      <point x="48" y="215"/>
      <point x="24" y="223"/>
      <point x="10" y="226" type="curve"/>
    </contour>
  </outline>
</glyph>
<glyph name="N" format="1">
  <advance width="910"/>
  <unicode hex="004E"/>
  <outline>
    <contour>
      <point x="565" y="710" type="line"/>
      <point x="565" y="520" type="line"/>
      <point x="615" y="520" type="line"/>
      <point x="615" y="520"/>
      <point x="615" y="520"/>
      <point x="615" y="520" type="curve"/>
      <point x="835" y="520" type="line"/>
      <point x="835" y="520"/>
      <point x="835" y="520"/>
      <point x="835" y="520" type="curve"/>
      <point x="895" y="520" type="line"/>
      <point x="895" y="710" type="line"/>
    </contour>
    <contour>
      <point x="461" y="710" type="line"/>
      <point x="15" y="710" type="line"/>
      <point x="15" y="520" type="line"/>
      <point x="75" y="520" type="line"/>
      <point x="75" y="520"/>
      <point x="75" y="520"/>
      <point x="75" y="520" type="curve"/>
      <point x="75" y="0" type="line"/>
      <point x="295" y="0" type="line"/>
      <point x="295" y="695" type="line"/>
      <point x="166" y="666" type="line"/>
      <point x="462" y="0" type="line"/>
      <point x="835" y="0" type="line"/>
      <point x="835" y="710" type="line"/>
      <point x="615" y="710" type="line"/>
      <point x="615" y="65" type="line"/>
      <point x="740" y="69" type="line"/>
    </contour>
    <contour>
      <point x="15" y="190" type="line"/>
      <point x="15" y="0" type="line"/>
      <point x="345" y="0" type="line"/>
      <point x="345" y="190" type="line"/>
      <point x="295" y="190" type="line"/>
      <point x="295" y="190"/>
      <point x="295" y="190"/>
      <point x="295" y="190" type="curve"/>
      <point x="75" y="190" type="line"/>
      <point x="75" y="190"/>
      <point x="75" y="190"/>
      <point x="75" y="190" type="curve"/>
    </contour>
  </outline>
</glyph>
<glyph name="b" format="1">
  <advance width="750"/>
  <unicode hex="0062"/>
  <outline>
    <contour>
      <point x="0" y="750" type="line"/>
      <point x="335" y="750" type="line"/>
      <point x="335" y="126" type="line"/>
      <point x="324" y="106" type="line"/>
      <point x="324" y="0" type="line"/>
      <point x="50" y="0" type="line"/>
      <point x="50" y="590" type="line"/>
      <point x="50" y="590"/>
      <point x="50" y="590"/>
      <point x="50" y="590" type="curve"/>
      <point x="0" y="590" type="line"/>
    </contour>
    <contour>
      <point x="441" y="269" type="curve" smooth="yes"/>
      <point x="441" y="310"/>
      <point x="422" y="333"/>
      <point x="388" y="333" type="curve" smooth="yes"/>
      <point x="347" y="333"/>
      <point x="314" y="310"/>
      <point x="289" y="267" type="curve"/>
      <point x="245" y="379" type="line"/>
      <point x="326" y="493"/>
      <point x="386" y="538"/>
      <point x="498" y="538" type="curve" smooth="yes"/>
      <point x="646" y="538"/>
      <point x="735" y="434"/>
      <point x="735" y="270" type="curve" smooth="yes"/>
      <point x="735" y="105"/>
      <point x="636" y="-11"/>
      <point x="483" y="-11" type="curve" smooth="yes"/>
      <point x="368" y="-11"/>
      <point x="308" y="42"/>
      <point x="246" y="150" type="curve"/>
      <point x="311" y="255" type="line"/>
      <point x="330" y="217"/>
      <point x="346" y="197"/>
      <point x="385" y="197" type="curve" smooth="yes"/>
      <point x="422" y="197"/>
      <point x="441" y="225"/>
    </contour>
  </outline>
</glyph>
<glyph name="e" format="1">
  <advance width="709"/>
  <unicode hex="0065"/>
  <outline>
    <contour>
      <point x="302" y="257" type="curve" smooth="yes"/>
      <point x="302" y="358"/>
      <point x="323" y="388"/>
      <point x="357" y="388" type="curve" smooth="yes"/>
      <point x="388" y="388"/>
      <point x="402" y="367"/>
      <point x="403" y="273" type="curve"/>
      <point x="530" y="324" type="line"/>
      <point x="172" y="324" type="line"/>
      <point x="173" y="208" type="line"/>
      <point x="694" y="208" type="line"/>
      <point x="695" y="420"/>
      <point x="572" y="537"/>
      <point x="355" y="537" type="curve" smooth="yes"/>
      <point x="164" y="537"/>
      <point x="15" y="442"/>
      <point x="15" y="260" type="curve" smooth="yes"/>
      <point x="15" y="92"/>
      <point x="151" y="-12"/>
      <point x="360" y="-12" type="curve" smooth="yes"/>
      <point x="526" y="-12"/>
      <point x="649" y="54"/>
      <point x="693" y="176" type="curve"/>
      <point x="421" y="176" type="line"/>
      <point x="416" y="157"/>
      <point x="399" y="138"/>
      <point x="370" y="138" type="curve" smooth="yes"/>
      <point x="331.2923076923077" y="138.0"/>
      <point x="302.0" y="166.0"/>
    </contour>
  </outline>
</glyph>
<glyph name="g" format="1">
  <advance width="752"/>
  <unicode hex="0067"/>
  <outline>
    <contour>
      <point x="353" y="164" type="curve" smooth="yes"/>
      <point x="554" y="164"/>
      <point x="666" y="231"/>
      <point x="666" y="348" type="curve" smooth="yes"/>
      <point x="666" y="463"/>
      <point x="556" y="538"/>
      <point x="353" y="538" type="curve" smooth="yes"/>
      <point x="153" y="538"/>
      <point x="43" y="463"/>
      <point x="43" y="348" type="curve" smooth="yes"/>
      <point x="43" y="231"/>
      <point x="153" y="164"/>
    </contour>
    <contour>
      <point x="288" y="-245" type="curve"/>
      <point x="435" y="-245" type="line" smooth="yes"/>
      <point x="625" y="-245"/>
      <point x="747" y="-179"/>
      <point x="747" y="-30" type="curve" smooth="yes"/>
      <point x="747" y="73"/>
      <point x="682" y="133"/>
      <point x="533" y="133" type="curve" smooth="yes"/>
      <point x="300" y="133" type="line" smooth="yes"/>
      <point x="257" y="133"/>
      <point x="241" y="138"/>
      <point x="241" y="152" type="curve" smooth="yes"/>
      <point x="241" y="170"/>
      <point x="256" y="179"/>
      <point x="304" y="205" type="curve"/>
      <point x="151" y="225" type="line"/>
      <point x="76" y="200"/>
      <point x="27" y="161"/>
      <point x="27" y="92" type="curve"/>
      <point x="27" y="34"/>
      <point x="62" y="-19"/>
      <point x="166" y="-25" type="curve"/>
      <point x="148" y="-68" type="line"/>
      <point x="429" y="-68" type="line" smooth="yes"/>
      <point x="468" y="-68"/>
      <point x="479" y="-72"/>
      <point x="479" y="-86" type="curve"/>
      <point x="479" y="-103"/>
      <point x="464" y="-113"/>
      <point x="400" y="-113" type="curve" smooth="yes"/>
      <point x="326" y="-113" type="line" smooth="yes"/>
      <point x="250" y="-113"/>
      <point x="230" y="-106"/>
      <point x="230" y="-86" type="curve" smooth="yes"/>
      <point x="230" y="-62"/>
      <point x="252" y="-50"/>
      <point x="306" y="-30" type="curve"/>
      <point x="169" y="-1" type="line"/>
      <point x="45" y="-10"/>
      <point x="-15" y="-39"/>
      <point x="-15" y="-113" type="curve"/>
      <point x="-15" y="-220"/>
      <point x="114" y="-245"/>
    </contour>
    <contour>
      <point x="523" y="455" type="curve"/>
      <point x="583" y="386" type="line"/>
      <point x="611" y="402"/>
      <point x="676" y="405"/>
      <point x="741" y="401" type="curve"/>
      <point x="741" y="545" type="line"/>
      <point x="659" y="551"/>
      <point x="571" y="516"/>
    </contour>
    <contour>
      <point x="314" y="340" type="curve" smooth="yes"/>
      <point x="314" y="370"/>
      <point x="329" y="389"/>
      <point x="353" y="389" type="curve" smooth="yes"/>
      <point x="378" y="389"/>
      <point x="394" y="370"/>
      <point x="394" y="340" type="curve" smooth="yes"/>
      <point x="394" y="310"/>
      <point x="379" y="291"/>
      <point x="355" y="291" type="curve" smooth="yes"/>
      <point x="330" y="291"/>
      <point x="314" y="310"/>
    </contour>
  </outline>
</glyph>
<glyph name="j" format="1">
  <advance width="405"/>
  <unicode hex="006A"/>
  <outline>
    <contour>
      <point x="345" y="40" type="curve" smooth="yes"/>
      <point x="345" y="528" type="line"/>
      <point x="10" y="528" type="line"/>
      <point x="10" y="368" type="line"/>
      <point x="60" y="368" type="line"/>
      <point x="60" y="368"/>
      <point x="60" y="368"/>
      <point x="60" y="368" type="curve"/>
      <point x="60" y="65" type="line" smooth="yes"/>
      <point x="60" y="-18"/>
      <point x="24" y="-49"/>
      <point x="-25" y="-49" type="curve" smooth="yes"/>
      <point x="-60" y="-49"/>
      <point x="-78" y="-42"/>
      <point x="-96" y="-38" type="curve"/>
      <point x="-96" y="-225" type="line"/>
      <point x="-77" y="-231"/>
      <point x="-31" y="-239"/>
      <point x="36" y="-239" type="curve"/>
      <point x="181" y="-239"/>
      <point x="345" y="-187"/>
    </contour>
    <contour>
      <point x="203" y="557" type="curve" smooth="yes"/>
      <point x="305" y="557"/>
      <point x="361" y="604"/>
      <point x="361" y="668" type="curve" smooth="yes"/>
      <point x="361" y="730"/>
      <point x="305" y="779"/>
      <point x="203" y="779" type="curve" smooth="yes"/>
      <point x="101" y="779"/>
      <point x="45" y="730"/>
      <point x="45" y="668" type="curve" smooth="yes"/>
      <point x="45" y="604"/>
      <point x="101" y="557"/>
    </contour>
  </outline>
</glyph>
<glyph name="v" format="1">
  <advance width="691"/>
  <unicode hex="0076"/>
  <outline>
    <contour>
      <point x="355" y="528" type="line"/>
      <point x="10" y="528" type="line"/>
      <point x="10" y="368" type="line"/>
      <point x="50" y="368" type="line"/>
      <point x="50" y="368"/>
      <point x="50" y="368"/>
      <point x="50" y="368" type="curve"/>
      <point x="325" y="368" type="line"/>
      <point x="325" y="368"/>
      <point x="325" y="368"/>
      <point x="325" y="368" type="curve"/>
      <point x="355" y="368" type="line"/>
    </contour>
    <contour>
      <point x="403" y="0" type="line"/>
      <point x="427" y="37" type="line"/>
      <point x="274" y="528" type="line"/>
      <point x="22" y="448" type="line"/>
      <point x="176" y="0" type="line"/>
    </contour>
    <contour>
      <point x="378" y="528" type="line"/>
      <point x="378" y="368" type="line"/>
      <point x="408" y="368" type="line"/>
      <point x="408" y="368"/>
      <point x="408" y="368"/>
      <point x="408" y="368" type="curve"/>
      <point x="641" y="368" type="line"/>
      <point x="641" y="368"/>
      <point x="641" y="368"/>
      <point x="641" y="368" type="curve"/>
      <point x="681" y="368" type="line"/>
      <point x="681" y="528" type="line"/>
    </contour>
    <contour>
      <point x="312" y="0" type="line"/>
      <point x="515" y="0" type="line"/>
      <point x="658" y="417" type="line"/>
      <point x="459" y="528" type="line"/>
      <point x="309" y="45" type="line"/>
    </contour>
  </outline>
</glyph>
<glyph name="x" format="1">
  <advance width="707"/>
  <unicode hex="0078"/>
  <outline>
    <contour>
      <point x="409" y="528" type="line"/>
      <point x="16" y="528" type="line"/>
      <point x="16" y="368" type="line"/>
      <point x="88" y="368" type="line"/>
      <point x="88" y="368"/>
      <point x="88" y="368"/>
      <point x="88" y="368" type="curve"/>
      <point x="373" y="388" type="line"/>
      <point x="373" y="388"/>
      <point x="373" y="388"/>
      <point x="373" y="388" type="curve"/>
      <point x="409" y="388" type="line"/>
    </contour>
    <contour>
      <point x="437" y="528" type="line"/>
      <point x="437" y="388" type="line"/>
      <point x="468" y="388" type="line"/>
      <point x="468" y="388"/>
      <point x="468" y="388"/>
      <point x="468" y="388" type="curve"/>
      <point x="630" y="368" type="line"/>
      <point x="630" y="368"/>
      <point x="630" y="368"/>
      <point x="630" y="368" type="curve"/>
      <point x="686" y="368" type="line"/>
      <point x="686" y="528" type="line"/>
    </contour>
    <contour>
      <point x="298" y="0" type="line"/>
      <point x="697" y="0" type="line"/>
      <point x="697" y="160" type="line"/>
      <point x="633" y="160" type="line"/>
      <point x="633" y="160"/>
      <point x="633" y="160"/>
      <point x="633" y="160" type="curve"/>
      <point x="343" y="140" type="line"/>
      <point x="343" y="140"/>
      <point x="343" y="140"/>
      <point x="343" y="140" type="curve"/>
      <point x="298" y="140" type="line"/>
    </contour>
    <contour>
      <point x="268" y="0" type="line"/>
      <point x="268" y="140" type="line"/>
      <point x="234" y="140" type="line"/>
      <point x="234" y="140"/>
      <point x="234" y="140"/>
      <point x="234" y="140" type="curve"/>
      <point x="80" y="160" type="line"/>
      <point x="80" y="160"/>
      <point x="80" y="160"/>
      <point x="80" y="160" type="curve"/>
      <point x="10" y="160" type="line"/>
      <point x="10" y="0" type="line"/>
    </contour>
    <contour>
      <point x="525" y="212" type="line"/>
      <point x="678" y="424" type="line"/>
      <point x="572" y="528" type="line"/>
      <point x="392" y="283" type="line"/>
    </contour>
    <contour>
      <point x="483" y="1" type="line"/>
      <point x="671" y="121" type="line"/>
      <point x="508" y="280" type="line"/>
      <point x="453" y="299" type="line"/>
      <point x="239" y="528" type="line"/>
      <point x="40" y="420" type="line"/>
      <point x="205" y="247" type="line"/>
      <point x="251" y="240" type="line"/>
    </contour>
    <contour>
      <point x="180" y="295" type="line"/>
      <point x="25" y="92" type="line"/>
      <point x="140" y="0" type="line"/>
      <point x="312" y="229" type="line"/>
    </contour>
  </outline>
</glyph>
<glyph name="K.alt" format="1">
  <advance width="923"/>
  <outline>
    <contour>
      <point x="75" y="0" type="line"/>
      <point x="385" y="0" type="line"/>
      <point x="385" y="710" type="line"/>
      <point x="75" y="710" type="line"/>
    </contour>
    <contour>
      <point x="15" y="190" type="line"/>
      <point x="15" y="0" type="line"/>
      <point x="435" y="0" type="line"/>
      <point x="435" y="176" type="line"/>
      <point x="385" y="176" type="line"/>
      <point x="385" y="176"/>
      <point x="385" y="176"/>
      <point x="385" y="176" type="curve"/>
      <point x="75" y="190" type="line"/>
      <point x="75" y="190"/>
      <point x="75" y="190"/>
      <point x="75" y="190" type="curve"/>
    </contour>
    <contour>
      <point x="15" y="710" type="line"/>
      <point x="15" y="520" type="line"/>
      <point x="75" y="520" type="line"/>
      <point x="75" y="520"/>
      <point x="75" y="520"/>
      <point x="75" y="520" type="curve"/>
      <point x="385" y="520" type="line"/>
      <point x="385" y="520"/>
      <point x="385" y="520"/>
      <point x="385" y="520" type="curve"/>
      <point x="434" y="520" type="line"/>
      <point x="434" y="710" type="line"/>
    </contour>
    <contour>
      <point x="468" y="176" type="line"/>
      <point x="468" y="0" type="line"/>
      <point x="908" y="0" type="line"/>
      <point x="908" y="190" type="line"/>
      <point x="848" y="190" type="line"/>
      <point x="848" y="190"/>
      <point x="848" y="190"/>
      <point x="848" y="190" type="curve"/>
      <point x="524" y="176" type="line"/>
      <point x="524" y="176"/>
      <point x="524" y="176"/>
      <point x="524" y="176" type="curve"/>
    </contour>
    <contour>
      <point x="462" y="710" type="line"/>
      <point x="462" y="520" type="line"/>
      <point x="513" y="520" type="line"/>
      <point x="513" y="520"/>
      <point x="513" y="520"/>
      <point x="513" y="520" type="curve"/>
      <point x="828" y="520" type="line"/>
      <point x="828" y="520"/>
      <point x="828" y="520"/>
      <point x="828" y="520" type="curve"/>
      <point x="876" y="520" type="line"/>
      <point x="876" y="710" type="line"/>
    </contour>
    <contour>
      <point x="360" y="383" type="line"/>
      <point x="663" y="0" type="line"/>
      <point x="899" y="126" type="line"/>
      <point x="629" y="465" type="line"/>
    </contour>
    <contour>
      <point x="278" y="134" type="line"/>
      <point x="577" y="351" type="line"/>
      <point x="601" y="348" type="line"/>
      <point x="839" y="529" type="line"/>
      <point x="759" y="700" type="line"/>
      <point x="210" y="298" type="line"/>
    </contour>
  </outline>
</glyph>
<glyph name="K.alt2" format="1">
  <advance width="902"/>
  <outline>
    <contour>
      <point x="461" y="190" type="line"/>
      <point x="461" y="0" type="line"/>
      <point x="887" y="0" type="line"/>
      <point x="887" y="190" type="line"/>
      <point x="845" y="190" type="line"/>
      <point x="845" y="190"/>
      <point x="845" y="190"/>
      <point x="845" y="190" type="curve"/>
      <point x="506" y="190" type="line"/>
      <point x="506" y="190"/>
      <point x="506" y="190"/>
      <point x="506" y="190" type="curve"/>
    </contour>
    <contour>
      <point x="472" y="710" type="line"/>
      <point x="472" y="520" type="line"/>
      <point x="517" y="520" type="line"/>
      <point x="517" y="520"/>
      <point x="517" y="520"/>
      <point x="517" y="520" type="curve"/>
      <point x="817" y="520" type="line"/>
      <point x="817" y="520"/>
      <point x="817" y="520"/>
      <point x="817" y="520" type="curve"/>
      <point x="860" y="520" type="line"/>
      <point x="860" y="710" type="line"/>
    </contour>
    <contour>
      <point x="666" y="0" type="line"/>
      <point x="880" y="147" type="line"/>
      <point x="627" y="445" type="line"/>
      <point x="622" y="348" type="line"/>
      <point x="854" y="555" type="line"/>
      <point x="709" y="710" type="line"/>
      <point x="368" y="377" type="line"/>
      <point x="368" y="355" type="line"/>
    </contour>
    <contour>
      <point x="75" y="0" type="line"/>
      <point x="395" y="0" type="line"/>
      <point x="395" y="710" type="line"/>
      <point x="75" y="710" type="line"/>
    </contour>
    <contour>
      <point x="15" y="190" type="line"/>
      <point x="15" y="0" type="line"/>
      <point x="435" y="0" type="line"/>
      <point x="435" y="190" type="line"/>
      <point x="395" y="190" type="line"/>
      <point x="395" y="190"/>
      <point x="395" y="190"/>
      <point x="395" y="190" type="curve"/>
      <point x="75" y="190" type="line"/>
      <point x="75" y="190"/>
      <point x="75" y="190"/>
      <point x="75" y="190" type="curve"/>
    </contour>
    <contour>
      <point x="15" y="710" type="line"/>
      <point x="15" y="520" type="line"/>
      <point x="75" y="520" type="line"/>
      <point x="75" y="520"/>
      <point x="75" y="520"/>
      <point x="75" y="520" type="curve"/>
      <point x="395" y="520" type="line"/>
      <point x="395" y="520"/>
      <point x="395" y="520"/>
      <point x="395" y="520" type="curve"/>
      <point x="446" y="520" type="line"/>
      <point x="446" y="710" type="line"/>
    </contour>
  </outline>
</glyph>
<glyph name="c.srf" format="1">
  <advance width="734"/>
  <outline>
    <contour>
      <point x="358" y="-12" type="curve" smooth="yes"/>
      <point x="540" y="-12"/>
      <point x="680" y="75"/>
      <point x="707" y="226" type="curve"/>
      <point x="429" y="226" type="line"/>
      <point x="421" y="198"/>
      <point x="403" y="183"/>
      <point x="374" y="183" type="curve" smooth="yes"/>
      <point x="329.5833333333333" y="183.0"/>
      <point x="309.0" y="215.0"/>
      <point x="309" y="263" type="curve" smooth="yes"/>
      <point x="309" y="310"/>
      <point x="327" y="341"/>
      <point x="365" y="341" type="curve" smooth="yes"/>
      <point x="397" y="341"/>
      <point x="414" y="322"/>
      <point x="420" y="285" type="curve"/>
      <point x="707" y="285" type="line"/>
      <point x="707" y="528" type="line"/>
      <point x="522" y="528" type="line"/>
      <point x="522" y="301" type="line"/>
      <point x="573" y="317" type="line"/>
      <point x="568" y="464"/>
      <point x="476" y="537"/>
      <point x="329" y="537" type="curve" smooth="yes"/>
      <point x="171" y="537"/>
      <point x="15" y="441"/>
      <point x="15" y="263" type="curve" smooth="yes"/>
      <point x="15.0" y="88.0"/>
      <point x="155" y="-12"/>
    </contour>
  </outline>
</glyph>
<glyph name="five.oldalt2" format="1">
  <advance width="723"/>
  <outline>
    <contour>
      <point x="69" y="528" type="line"/>
      <point x="663" y="528" type="line"/>
      <point x="663" y="294" type="line"/>
      <point x="463" y="294" type="line"/>
      <point x="463" y="349" type="line"/>
      <point x="463" y="349"/>
      <point x="463" y="349"/>
      <point x="463" y="349" type="curve"/>
      <point x="226" y="349" type="line"/>
      <point x="320" y="477" type="line"/>
      <point x="320" y="248" type="line"/>
      <point x="69" y="248" type="line"/>
    </contour>
    <contour>
      <point x="365" y="269" type="line" smooth="yes"/>
      <point x="605" y="269"/>
      <point x="708.0" y="189.0"/>
      <point x="708" y="53" type="curve" smooth="yes"/>
      <point x="708.0" y="-117.0"/>
      <point x="559.2470238095239" y="-192.0"/>
      <point x="377" y="-192" type="curve" smooth="yes"/>
      <point x="175.7792915531335" y="-192.0"/>
      <point x="33.99697040482256" y="-109.97225528626981"/>
      <point x="15" y="64" type="curve"/>
      <point x="307" y="64" type="line"/>
      <point x="314.98094736227887" y="22.10002634803586"/>
      <point x="340.46478873239437" y="9.0"/>
      <point x="373" y="9" type="curve" smooth="yes"/>
      <point x="400.83673469387753" y="9.0"/>
      <point x="417.0" y="25.0"/>
      <point x="417" y="52" type="curve" smooth="yes"/>
      <point x="417.0" y="91.0"/>
      <point x="387.3478260869565" y="106"/>
      <point x="307" y="106" type="curve" smooth="yes"/>
      <point x="69" y="106" type="line"/>
      <point x="69" y="269" type="line"/>
    </contour>
  </outline>
</glyph>
<glyph name="four.old" format="1">
  <advance width="708"/>
  <outline>
    <contour>
      <point x="260" y="-12" type="line"/>
      <point x="260" y="-182" type="line"/>
      <point x="678" y="-182" type="line"/>
      <point x="678" y="-12" type="line"/>
      <point x="608" y="-12" type="line"/>
      <point x="608" y="-12"/>
      <point x="608" y="-12"/>
      <point x="608" y="-12" type="curve"/>
      <point x="330" y="-12" type="line"/>
      <point x="330" y="-12"/>
      <point x="330" y="-12"/>
      <point x="330" y="-12" type="curve"/>
    </contour>
    <contour>
      <point x="330" y="528" type="line"/>
      <point x="330" y="-182" type="line"/>
      <point x="608" y="-182" type="line"/>
      <point x="608" y="528" type="line"/>
    </contour>
    <contour>
      <point x="15.0" y="45.0" type="line"/>
      <point x="688.0" y="45.0" type="line"/>
      <point x="688.0" y="209.0" type="line"/>
      <point x="688.0" y="209.0"/>
      <point x="165.0" y="209.0"/>
      <point x="165.0" y="209.0" type="curve"/>
      <point x="201.0" y="146.0" type="line"/>
      <point x="428.0" y="462.0" type="line"/>
      <point x="476.0" y="528.0" type="line"/>
      <point x="258.0" y="528.0" type="line"/>
      <point x="15.0" y="180.0" type="line"/>
    </contour>
  </outline>
</glyph>
<glyph name="g.alt" format="1">
  <advance width="740"/>
  <outline>
    <contour>
      <point x="309" y="270" type="curve" smooth="yes"/>
      <point x="309" y="313"/>
      <point x="329" y="338"/>
      <point x="366" y="338" type="curve" smooth="yes"/>
      <point x="405" y="338"/>
      <point x="420" y="318"/>
      <point x="439" y="280" type="curve"/>
      <point x="504" y="385" type="line"/>
      <point x="442" y="493"/>
      <point x="380" y="546"/>
      <point x="264" y="546" type="curve" smooth="yes"/>
      <point x="111" y="546"/>
      <point x="15" y="433"/>
      <point x="15" y="270" type="curve" smooth="yes"/>
      <point x="15" y="104"/>
      <point x="107" y="-3"/>
      <point x="255" y="-3" type="curve" smooth="yes"/>
      <point x="367" y="-3"/>
      <point x="424" y="42"/>
      <point x="505" y="156" type="curve"/>
      <point x="461" y="268" type="line"/>
      <point x="436" y="225"/>
      <point x="409" y="202"/>
      <point x="367" y="202" type="curve" smooth="yes"/>
      <point x="330" y="202"/>
      <point x="309" y="226"/>
    </contour>
    <contour>
      <point x="700" y="51" type="curve" smooth="yes"/>
      <point x="700" y="528" type="line"/>
      <point x="425" y="528" type="line"/>
      <point x="425" y="422" type="line"/>
      <point x="415" y="402" type="line"/>
      <point x="415" y="51" type="line" smooth="yes"/>
      <point x="415" y="-41"/>
      <point x="361" y="-67"/>
      <point x="287" y="-67" type="curve" smooth="yes"/>
      <point x="199" y="-67"/>
      <point x="134" y="-46"/>
      <point x="68" y="-23" type="curve"/>
      <point x="68" y="-222" type="line"/>
      <point x="119" y="-235"/>
      <point x="191" y="-247"/>
      <point x="287" y="-247" type="curve" smooth="yes"/>
      <point x="546" y="-247"/>
      <point x="700" y="-147"/>
    </contour>
  </outline>
</glyph>
<glyph name="g.alt4" format="1">
  <advance width="760"/>
  <outline>
    <contour>
      <point x="255" y="11" type="curve" smooth="yes"/>
      <point x="367" y="11"/>
      <point x="424" y="56"/>
      <point x="505" y="170" type="curve"/>
      <point x="461" y="276" type="line"/>
      <point x="436" y="233"/>
      <point x="409" y="210"/>
      <point x="367" y="210" type="curve" smooth="yes"/>
      <point x="330.0" y="210.0"/>
      <point x="309.0" y="232.032786885"/>
      <point x="309" y="274" type="curve" smooth="yes"/>
      <point x="309.0" y="314.918032787"/>
      <point x="329.0" y="338.0"/>
      <point x="366" y="338" type="curve" smooth="yes"/>
      <point x="405" y="338"/>
      <point x="420" y="318"/>
      <point x="439" y="280" type="curve"/>
      <point x="504" y="385" type="line"/>
      <point x="442" y="493"/>
      <point x="380" y="546"/>
      <point x="264" y="546" type="curve" smooth="yes"/>
      <point x="111.0" y="546.0"/>
      <point x="15.0" y="436.0"/>
      <point x="15" y="277" type="curve" smooth="yes"/>
      <point x="15.0" y="115.174904943"/>
      <point x="107.0" y="11.0"/>
    </contour>
    <contour>
      <point x="345" y="-246" type="curve" smooth="yes"/>
      <point x="548" y="-246"/>
      <point x="700" y="-132"/>
      <point x="700" y="98" type="curve" smooth="yes"/>
      <point x="700" y="528" type="line"/>
      <point x="425" y="528" type="line"/>
      <point x="425" y="422" type="line"/>
      <point x="415" y="402" type="line"/>
      <point x="415" y="43" type="line" smooth="yes"/>
      <point x="415" y="-39"/>
      <point x="381" y="-66"/>
      <point x="337" y="-66" type="curve"/>
      <point x="294" y="-66"/>
      <point x="276" y="-46"/>
      <point x="265" y="-12" type="curve"/>
      <point x="26" y="-12" type="line"/>
      <point x="42" y="-154"/>
      <point x="127" y="-246"/>
    </contour>
  </outline>
</glyph>
<glyph name="one.alt" format="1">
  <advance width="490"/>
  <outline>
    <contour>
      <point x="110" y="606" type="line"/>
      <point x="110" y="0" type="line"/>
      <point x="420" y="0" type="line"/>
      <point x="420" y="710" type="line"/>
      <point x="158" y="710" type="line"/>
      <point x="15" y="680" type="line"/>
      <point x="15" y="490" type="line"/>
      <point x="15" y="490"/>
      <point x="228" y="526"/>
      <point x="228" y="526" type="curve"/>
    </contour>
  </outline>
</glyph>
<glyph name="s.srf2" format="1">
  <advance width="696"/>
  <outline>
    <contour>
      <point x="387" y="157" type="curve" smooth="yes"/>
      <point x="387" y="137"/>
      <point x="371" y="129"/>
      <point x="340" y="129" type="curve"/>
      <point x="304" y="129"/>
      <point x="276" y="139"/>
      <point x="259" y="159" type="curve"/>
      <point x="261" y="142"/>
      <point x="263" y="129"/>
      <point x="273" y="115" type="curve"/>
      <point x="273" y="181" type="line"/>
      <point x="10" y="181" type="line"/>
      <point x="10" y="99" type="line"/>
      <point x="73" y="27"/>
      <point x="187" y="-11"/>
      <point x="356" y="-11" type="curve" smooth="yes"/>
      <point x="565" y="-11"/>
      <point x="686" y="56"/>
      <point x="686" y="177" type="curve" smooth="yes"/>
      <point x="686" y="413"/>
      <point x="323" y="307"/>
      <point x="323" y="379" type="curve" smooth="yes"/>
      <point x="323" y="393"/>
      <point x="337" y="402"/>
      <point x="364" y="402" type="curve" smooth="yes"/>
      <point x="390" y="402"/>
      <point x="409" y="397"/>
      <point x="433" y="366" type="curve"/>
      <point x="458" y="398"/>
      <point x="447" y="412"/>
      <point x="402" y="408" type="curve"/>
      <point x="402" y="361" type="line"/>
      <point x="661" y="361" type="line"/>
      <point x="661" y="374"/>
      <point x="661" y="410"/>
      <point x="661" y="424" type="curve"/>
      <point x="607" y="501"/>
      <point x="500" y="538"/>
      <point x="339" y="538" type="curve" smooth="yes"/>
      <point x="147" y="538"/>
      <point x="26" y="474"/>
      <point x="26" y="360" type="curve" smooth="yes"/>
      <point x="26" y="133"/>
      <point x="387" y="234"/>
    </contour>
  </outline>
</glyph>
<glyph name="two.oldalt" format="1">
  <advance width="690"/>
  <outline>
    <contour>
      <point x="159" y="96" type="curve"/>
      <point x="199" y="116"/>
      <point x="202" y="145"/>
      <point x="212" y="155" type="curve"/>
      <point x="505" y="155" type="line"/>
      <point x="505" y="155" type="line"/>
      <point x="505" y="194" type="line"/>
      <point x="675" y="194" type="line"/>
      <point x="675" y="0" type="line"/>
      <point x="22" y="0" type="line"/>
      <point x="22" y="40"/>
      <point x="22" y="150"/>
      <point x="22" y="164" type="curve"/>
      <point x="198" y="223"/>
      <point x="355" y="298"/>
      <point x="355" y="348" type="curve" smooth="yes"/>
      <point x="355" y="360"/>
      <point x="346" y="366"/>
      <point x="330" y="366" type="curve" smooth="yes"/>
      <point x="305" y="366"/>
      <point x="288" y="347"/>
      <point x="280" y="320" type="curve"/>
      <point x="13" y="320" type="line"/>
      <point x="40" y="446"/>
      <point x="158" y="537"/>
      <point x="351" y="537" type="curve" smooth="yes"/>
      <point x="532" y="537"/>
      <point x="636" y="472"/>
      <point x="636" y="361" type="curve" smooth="yes"/>
      <point x="636" y="231"/>
      <point x="480" y="188"/>
    </contour>
  </outline>
</glyph>
<glyph name="y.alt" format="1">
  <advance width="757"/>
  <outline>
    <contour>
      <point x="60" y="365" type="line"/>
      <point x="60" y="365"/>
      <point x="60" y="365"/>
      <point x="60" y="365" type="curve"/>
      <point x="10" y="365" type="line"/>
      <point x="10" y="525" type="line"/>
      <point x="345" y="525" type="line"/>
      <point x="345" y="234" type="line" smooth="yes"/>
      <point x="345" y="204"/>
      <point x="353" y="192"/>
      <point x="376" y="192" type="curve" smooth="yes"/>
      <point x="399" y="192"/>
      <point x="419" y="207"/>
      <point x="453" y="247" type="curve"/>
      <point x="491" y="151" type="line"/>
      <point x="418" y="27"/>
      <point x="352" y="-13"/>
      <point x="250" y="-13" type="curve" smooth="yes"/>
      <point x="137" y="-13"/>
      <point x="60" y="44"/>
      <point x="60" y="164" type="curve" smooth="yes"/>
    </contour>
    <contour>
      <point x="697" y="51" type="line" smooth="yes"/>
      <point x="697" y="-147"/>
      <point x="543" y="-247"/>
      <point x="284" y="-247" type="curve" smooth="yes"/>
      <point x="188" y="-247"/>
      <point x="116" y="-235"/>
      <point x="65" y="-222" type="curve"/>
      <point x="65" y="-23" type="line"/>
      <point x="131" y="-46"/>
      <point x="196" y="-67"/>
      <point x="284" y="-67" type="curve" smooth="yes"/>
      <point x="358" y="-67"/>
      <point x="412" y="-41"/>
      <point x="412" y="51" type="curve" smooth="yes"/>
      <point x="412" y="365" type="line"/>
      <point x="412" y="365"/>
      <point x="412" y="365"/>
      <point x="412" y="365" type="curve"/>
      <point x="366" y="365" type="line"/>
      <point x="366" y="525" type="line"/>
      <point x="697" y="525" type="line"/>
    </contour>
  </outline>
</glyph>
